<svg width="747" height="726" viewBox="0 0 747 726" fill="none" xmlns="http://www.w3.org/2000/svg">
    <path fill-rule="evenodd" clip-rule="evenodd" d="M321 102.004C358.801 134.708 384.532 142.669 431 159C491.136 180.133 532 126 622 176.002C677.469 206.819 683.755 300.701 664 357C644.597 412.298 583.056 434.996 540 479.001C496.425 523.537 480.224 584.863 416 602C351.923 619.098 329.102 595.617 276 560C233.848 531.727 126.704 514.86 93.0007 479.001C60.6836 444.616 45.0412 425.689 39.7276 381.489C34.3653 336.883 108.568 272.876 127 231C147.422 184.604 136.102 136.636 177 102.003C216.681 68.4001 276.419 63.433 321 102.004Z" fill="#ECECED"/>
    <g filter="url(#filter0_d)">
        <path fill-rule="evenodd" clip-rule="evenodd" d="M371.741 545.276C296.077 547.516 211.714 591.019 156.554 543.169C97.6505 492.069 92.0788 390.542 109.142 317.471C125.429 247.725 171.401 172.581 237.844 136.225C308.112 97.7769 395.967 92.5647 472.487 118.658C552.845 146.06 609.504 212.702 632.813 288.903C656.235 365.472 652.164 454.949 593.097 512.952C539.198 565.881 450.278 542.95 371.741 545.276Z" fill="url(#paint0_linear)"/>
        <path fill-rule="evenodd" clip-rule="evenodd" d="M371.741 545.276C296.077 547.516 211.714 591.019 156.554 543.169C97.6505 492.069 92.0788 390.542 109.142 317.471C125.429 247.725 171.401 172.581 237.844 136.225C308.112 97.7769 395.967 92.5647 472.487 118.658C552.845 146.06 609.504 212.702 632.813 288.903C656.235 365.472 652.164 454.949 593.097 512.952C539.198 565.881 450.278 542.95 371.741 545.276Z" fill="url(#paint1_linear)"/>
        <g filter="url(#filter1_i)">
            <path d="M178.749 540.473C229.448 589.891 306.315 546.914 375.467 545C447.245 543.014 533 568.002 587.625 511.674C623.268 472.31 628.869 417.8 622.207 362.555C615.662 308.271 581.625 259.939 529.65 242.678C491.798 230.107 442.025 221.682 385.823 232.345C242.322 259.57 192.533 328.839 162.888 396.037C144.831 436.966 140.213 486.162 165.062 523.635C169.228 529.918 173.783 535.633 178.749 540.473Z" fill="url(#paint2_linear)"/>
            <path d="M178.749 540.473C229.448 589.891 306.315 546.914 375.467 545C447.245 543.014 533 568.002 587.625 511.674C623.268 472.31 628.869 417.8 622.207 362.555C615.662 308.271 581.625 259.939 529.65 242.678C491.798 230.107 442.025 221.682 385.823 232.345C242.322 259.57 192.533 328.839 162.888 396.037C144.831 436.966 140.213 486.162 165.062 523.635C169.228 529.918 173.783 535.633 178.749 540.473Z" fill="url(#paint3_linear)"/>
        </g>
        <circle cx="575.154" cy="405.153" r="13.1544" fill="white" fill-opacity="0.05"/>
        <path d="M342.999 499.999C314.28 499.999 290.999 523.28 290.999 551.999C290.999 553.857 291.097 555.692 291.287 557.499C322 550.999 341 547.999 341 547.999C353.731 546.832 382.274 544.699 394.597 545.499C391.398 519.848 369.517 499.999 342.999 499.999Z" fill="white" fill-opacity="0.05"/>
        <circle cx="256.002" cy="444.999" r="14" fill="white" fill-opacity="0.05"/>
        <circle cx="364.002" cy="220.999" r="45" fill="black" fill-opacity="0.03"/>
        <circle cx="184.156" cy="266.153" r="13.1544" fill="black" fill-opacity="0.03"/>
        <g filter="url(#filter2_d)">
            <path d="M327.345 263.463C329.38 257.323 338.337 233.853 346.887 222.118C355.572 210.383 366.836 213.112 366.836 213.112C398.728 229.077 366.836 276.699 366.836 276.699C366.836 276.699 364.122 283.795 361.272 290.071L341.323 284.34L321.374 278.609C324.088 272.742 327.073 265.101 327.345 263.463Z" fill="white"/>
            <path d="M247.281 310.005V310.415C246.601 310.142 247.281 310.005 247.281 310.005Z" fill="white"/>
            <path d="M264.925 350.527C265.875 350.8 269.946 350.391 282.839 344.796C295.324 339.202 304.552 329.241 306.181 327.74C307.402 326.512 315.273 297.038 321.516 278.344L362.093 287.213C359.243 294.718 357.615 301.677 352.729 312.866C350.558 317.915 349.743 322.964 347.436 327.876C339.565 343.022 338.615 354.485 329.116 358.305C309.166 369.358 278.36 371.678 278.36 371.678L264.925 350.527Z" fill="url(#paint4_linear)"/>
            <path d="M349.849 471.592C349.849 471.592 486.908 416.294 501.336 452.019C510.791 475.272 515.652 509.559 518 546.2C505.5 548 483.702 548.3 483.702 548.3C462.5 548.5 424.205 546.4 424.205 546.4C399.5 545 376.37 545.3 376.37 545.3C361.5 545.5 341 548.5 341 548.5C345.674 509.997 349.849 471.592 349.849 471.592Z" fill="url(#paint5_linear)"/>
            <path d="M400.365 201.927C400.365 201.927 359.923 209.977 355.173 213.935C350.016 218.165 340.788 260.465 340.245 272.2C339.702 284.071 345.131 333.058 350.288 351.479C355.445 369.9 351.238 465.281 348.795 480.155C348.795 480.155 431.578 503.624 511.104 485.886C511.104 485.886 494.818 402.24 498.076 376.996C501.875 343.156 507.711 270.699 507.711 270.699C507.711 270.699 505.675 221.303 498.347 215.572C491.29 209.841 441.62 200.426 441.62 200.426L400.365 201.927Z" fill="white"/>
            <path d="M400.365 201.927C400.365 201.927 359.923 209.977 355.173 213.935C350.016 218.165 340.788 260.465 340.245 272.2C339.702 284.071 345.131 333.058 350.288 351.479C355.445 369.9 351.238 465.281 348.795 480.155C348.795 480.155 431.578 503.624 511.104 485.886C511.104 485.886 494.818 402.24 498.076 376.996C501.875 343.156 507.711 270.699 507.711 270.699C507.711 270.699 505.675 221.303 498.347 215.572C491.29 209.841 441.62 200.426 441.62 200.426L400.365 201.927Z" fill="url(#paint6_linear)"/>
            <path d="M454.913 203.43C454.913 203.43 431.978 247.232 398.458 243.684C367.109 240.409 384.48 209.298 387.465 204.658C387.737 204.522 407.822 192.241 454.913 203.43Z" fill="url(#paint7_linear)"/>
            <path d="M472.829 317.779L486.807 316.278L468.486 259.786C458.851 286.667 470.929 306.999 472.829 317.779Z" fill="url(#paint8_linear)"/>
            <path d="M473.375 291.305C471.068 284.618 464.282 272.201 464.961 246.139C465.504 221.85 473.511 210.934 479.075 210.115C515.852 204.248 521.145 262.786 522.502 267.152C523.045 269.063 523.995 279.979 525.08 293.624L476.225 301.948C475.139 296.899 473.918 293.078 473.375 291.305Z" fill="white"/>
            <path d="M445.958 199.736C445.958 199.736 451.386 197.416 473.235 203.147C502.141 210.652 508.52 223.479 508.52 223.479C508.52 223.479 469.842 207.514 458.714 266.052C454.236 320.633 487.756 319.541 502.82 320.633L504.313 404.825L514.084 451.355C514.627 455.176 512.184 458.724 508.384 459.269C495.899 460.907 463.328 464.045 447.722 465.137C442.701 465.41 438.358 461.862 437.815 456.813L419.087 252.816C419.087 252.543 444.058 239.716 445.958 199.736Z" fill="url(#paint9_linear)"/>
            <path d="M393.03 202.611L371.86 206.432C370.91 206.568 369.96 206.705 369.01 206.978C358.56 209.434 350.282 215.029 345.125 224.444L343.496 226.9C347.296 244.775 343.904 254.327 340.511 273.158C339.832 277.388 339.561 281.754 340.104 285.984C342.818 313.684 351.096 400.878 347.161 442.086C346.753 446.862 349.196 451.229 353.675 453.139C359.782 455.868 365.074 459.416 373.895 461.463C379.595 462.827 385.159 458.324 385.024 452.457C385.024 452.457 384.074 391.599 381.902 333.06C381.902 270.838 378.781 240.818 378.781 240.818C378.781 240.818 366.16 213.255 393.03 202.611Z" fill="url(#paint10_linear)"/>
            <path d="M447.047 181.729C447.047 181.729 443.654 179 443.519 180.501C443.383 182.001 442.976 188.005 442.976 192.235H446.504L447.047 181.729Z" fill="#32394B"/>
            <path d="M394.522 201.791C394.522 201.791 384.479 208.887 382.851 214.208C379.187 225.943 375.522 229.491 378.508 241.226C378.508 241.226 372.401 237.678 366.973 235.358C362.63 233.448 358.83 228.536 360.594 223.896C364.123 215.163 367.923 211.889 372.265 205.202C382.036 189.92 397.643 186.235 397.643 186.235L394.522 201.791Z" fill="#32394B"/>
            <path d="M391.125 211.897C391.125 211.897 417.452 231.409 442.83 200.844C442.83 200.844 441.744 176.01 449.48 152.813C457.351 129.616 396.417 183.787 396.417 183.787C396.96 184.197 396.96 186.516 396.689 189.655L394.925 199.343C392.618 207.121 393.16 205.62 391.125 211.897Z" fill="url(#paint11_linear)"/>
            <path d="M446.91 181.868L446.503 184.188C445.96 187.872 443.382 191.42 441.075 194.558C440.668 195.241 439.989 195.923 439.582 196.469C431.439 206.839 417.19 224.032 411.354 227.989C403.076 233.72 418.818 252.551 418.818 252.551C418.818 252.551 428.725 256.508 445.689 221.167C447.996 216.118 451.389 213.662 452.746 206.157C454.646 195.513 448.132 183.642 446.91 181.868Z" fill="#32394B"/>
            <path d="M263.426 269.883C254.605 248.869 242.12 212.164 258.405 204.795C283.918 192.924 314.996 250.098 314.996 250.098L304.139 255.01C304.139 255.01 279.033 208.343 263.969 215.439C253.655 220.351 264.241 247.914 271.705 264.289C277.811 269.61 357.337 336.609 410.943 261.696C427.363 238.772 441.342 306.316 433.47 351.755C430.756 367.174 422.207 380.82 409.857 390.371C403.614 395.147 395.607 401.697 385.836 410.43C368.194 426.395 342.545 427.077 315.132 416.843C264.783 398.013 264.512 325.147 268.04 287.213C268.583 287.076 267.09 278.616 263.426 269.883Z" fill="url(#paint12_linear)"/>
            <path d="M419.769 257.189C419.769 257.189 423.569 258.826 426.826 264.83C428.726 268.105 430.354 271.38 432.254 275.201C433.476 277.657 435.918 282.16 438.768 288.3C450.168 314.226 453.153 337.696 438.904 345.065C421.94 353.661 409.319 330.328 395.613 317.365C388.013 310.133 382.042 306.448 379.463 304.538H379.599C367.656 312.862 354.493 318.456 340.786 318.729C298.987 319.275 271.845 264.012 271.845 264.012C339.429 228.124 419.769 257.189 419.769 257.189ZM403.484 309.86C415.019 322.823 425.333 340.152 434.29 334.558C446.232 327.326 434.29 302.491 424.383 285.435C418.683 275.883 413.662 268.651 413.662 268.651L413.933 267.969C408.505 276.565 400.77 285.98 391.541 294.441C391.813 295.396 397.784 303.446 403.484 309.86Z" fill="url(#paint13_linear)"/>
            <path d="M419.636 257.056L413.8 268.928C413.8 268.791 413.664 268.791 413.664 268.791L413.936 268.109C408.507 276.705 400.772 286.121 391.544 294.581C391.544 294.581 391.544 294.717 391.679 294.717L379.466 304.405C379.466 304.405 379.466 304.405 379.33 304.405H379.466C367.523 312.729 354.359 318.324 340.653 318.597C298.854 319.142 271.712 263.879 271.712 263.879C337.803 228.947 415.564 255.692 419.636 257.056Z" fill="url(#paint14_linear)"/>
            <path d="M314.586 249.007C310.651 249.825 306.579 250.644 302.508 251.736C299.387 246.141 292.058 234.406 284.052 225.537L293.415 219.806C304.272 231.404 312.551 245.459 314.586 249.007Z" fill="#A442A0"/>
            <path d="M277.961 248.052L324.509 227.857C326.138 227.175 328.037 227.857 328.716 229.495L365.358 306.591C366.036 308.228 365.358 310.139 363.729 310.821L317.316 331.152C315.688 331.835 313.788 331.152 313.109 329.515L276.468 252.419C275.654 250.645 276.468 248.871 277.961 248.052Z" fill="url(#paint15_linear)"/>
            <path d="M300.622 256.102C301.3 257.739 302.793 258.694 304.422 258.694C305.371 258.558 306.321 258.012 307.136 257.739L314.6 254.601C315.685 254.055 316.5 253.373 316.771 252.281C317.178 251.326 317.178 250.098 316.771 249.006C315.957 246.823 313.378 245.868 311.207 246.823L302.386 250.643C302.25 250.78 301.979 250.78 301.843 250.916C301.3 251.326 301.029 251.599 300.757 252.144C300.486 252.69 300.215 252.963 300.215 253.509C300.215 254.328 300.35 255.146 300.622 256.102Z" fill="#FF335C"/>
            <path d="M300.622 256.102C301.3 257.739 302.793 258.694 304.422 258.694C305.371 258.558 306.321 258.012 307.136 257.739L314.6 254.601C315.685 254.055 316.5 253.373 316.771 252.281C317.178 251.326 317.178 250.098 316.771 249.006C315.957 246.823 313.378 245.868 311.207 246.823L302.386 250.643C302.25 250.78 301.979 250.78 301.843 250.916C301.3 251.326 301.029 251.599 300.757 252.144C300.486 252.69 300.215 252.963 300.215 253.509C300.215 254.328 300.35 255.146 300.622 256.102Z" fill="url(#paint16_linear)"/>
            <path d="M306.468 269.198C307.146 270.835 308.639 271.791 310.267 271.791C310.675 271.791 311.082 271.654 311.625 271.381L320.446 267.561C321.531 267.015 322.346 266.332 322.617 265.241C323.024 264.286 323.024 263.058 322.617 261.966C321.803 259.783 319.224 258.828 317.053 259.783L308.232 263.603C308.096 263.74 307.825 263.74 307.689 263.876C307.146 264.286 306.875 264.559 306.603 265.104C306.332 265.65 306.06 265.923 306.06 266.469C306.06 267.561 306.196 268.516 306.468 269.198Z" fill="url(#paint17_linear)"/>
            <path d="M306.468 269.198C307.146 270.835 308.639 271.791 310.267 271.791C310.675 271.791 311.082 271.654 311.625 271.381L320.446 267.561C321.531 267.015 322.346 266.332 322.617 265.241C323.024 264.286 323.024 263.058 322.617 261.966C321.803 259.783 319.224 258.828 317.053 259.783L308.232 263.603C308.096 263.74 307.825 263.74 307.689 263.876C307.146 264.286 306.875 264.559 306.603 265.104C306.332 265.65 306.06 265.923 306.06 266.469C306.06 267.561 306.196 268.516 306.468 269.198Z" fill="url(#paint18_linear)"/>
            <path d="M312.155 282.578C312.834 284.215 314.327 285.17 315.955 285.17C316.362 285.17 316.77 285.034 317.312 284.761L326.134 280.94C327.219 280.395 328.033 279.712 328.305 278.621C328.712 277.666 328.712 276.437 328.305 275.346C327.491 273.163 324.912 272.207 322.741 273.163L313.92 276.983C313.784 277.12 313.513 277.12 313.377 277.256C312.834 277.666 312.563 277.938 312.291 278.484C312.02 279.03 311.748 279.303 311.748 279.849C311.748 280.804 311.884 281.896 312.155 282.578Z" fill="url(#paint19_linear)"/>
            <path d="M312.155 282.578C312.834 284.215 314.327 285.17 315.955 285.17C316.362 285.17 316.77 285.034 317.312 284.761L326.134 280.94C327.219 280.395 328.033 279.712 328.305 278.621C328.712 277.666 328.712 276.437 328.305 275.346C327.491 273.163 324.912 272.207 322.741 273.163L313.92 276.983C313.784 277.12 313.513 277.12 313.377 277.256C312.834 277.666 312.563 277.938 312.291 278.484C312.02 279.03 311.748 279.303 311.748 279.849C311.748 280.804 311.884 281.896 312.155 282.578Z" fill="url(#paint20_linear)"/>
            <path d="M317.855 295.811C318.534 297.449 320.026 298.404 321.655 298.404C322.062 298.404 322.469 298.267 323.012 297.995L331.833 294.174C332.919 293.628 333.733 292.946 334.005 291.854C334.412 290.899 334.412 289.671 334.005 288.579C333.19 286.396 330.612 285.441 328.44 286.396L319.619 290.217C319.348 290.353 319.212 290.49 318.941 290.626C318.534 290.899 318.262 291.308 317.991 291.718C317.719 292.263 317.448 292.673 317.312 293.355C317.584 294.174 317.584 295.129 317.855 295.811Z" fill="url(#paint21_linear)"/>
            <path d="M317.855 295.811C318.534 297.449 320.026 298.404 321.655 298.404C322.062 298.404 322.469 298.267 323.012 297.995L331.833 294.174C332.919 293.628 333.733 292.946 334.005 291.854C334.412 290.899 334.412 289.671 334.005 288.579C333.19 286.396 330.612 285.441 328.44 286.396L319.619 290.217C319.348 290.353 319.212 290.49 318.941 290.626C318.534 290.899 318.262 291.308 317.991 291.718C317.719 292.263 317.448 292.673 317.312 293.355C317.584 294.174 317.584 295.129 317.855 295.811Z" fill="url(#paint22_linear)"/>
            <path d="M323.698 309.187C324.377 310.825 325.87 311.78 327.498 311.78C327.905 311.78 328.313 311.643 328.855 311.37L337.541 307.55C338.626 307.004 339.441 306.322 339.712 305.23C340.119 304.275 340.119 303.047 339.712 301.955C338.898 299.772 336.319 298.817 334.148 299.772L325.327 303.593C325.055 303.729 324.784 303.866 324.648 304.002C324.241 304.275 323.97 304.684 323.834 304.821C323.427 305.367 323.156 305.912 323.156 306.595C323.427 307.55 323.427 308.369 323.698 309.187Z" fill="url(#paint23_linear)"/>
            <path d="M323.698 309.187C324.377 310.825 325.87 311.78 327.498 311.78C327.905 311.78 328.313 311.643 328.855 311.37L337.541 307.55C338.626 307.004 339.441 306.322 339.712 305.23C340.119 304.275 340.119 303.047 339.712 301.955C338.898 299.772 336.319 298.817 334.148 299.772L325.327 303.593C325.055 303.729 324.784 303.866 324.648 304.002C324.241 304.275 323.97 304.684 323.834 304.821C323.427 305.367 323.156 305.912 323.156 306.595C323.427 307.55 323.427 308.369 323.698 309.187Z" fill="url(#paint24_linear)"/>
            <path d="M387.599 215.428L392.077 216.519L399.948 218.43L404.427 219.521L400.491 236.305L383.663 232.348L387.599 215.428Z" fill="url(#paint25_linear)"/>
            <path d="M370.774 250.893C378.781 247.618 380.409 246.253 381.766 240.386L384.209 229.879L401.037 233.972L398.594 244.479C397.237 250.21 398.052 252.257 403.616 258.807C409.723 265.22 405.923 276.273 405.923 276.273L389.23 346.683C389.23 346.683 388.145 355.825 377.831 353.915L351.232 347.501C341.189 344.499 344.311 335.903 344.311 335.903L361.003 265.493C360.867 265.493 362.36 253.895 370.774 250.893Z" fill="url(#paint26_linear)"/>
            <path d="M358.887 273.803L403.901 284.603L393.381 328.934L348.367 318.134L358.887 273.803Z" fill="url(#paint27_linear)"/>
            <path d="M385.564 220.189L387.871 210.364C388.006 209.819 388.549 209.546 389.092 209.682L405.649 213.639C406.192 213.776 406.599 214.322 406.463 214.731L404.156 224.556L385.564 220.189Z" fill="url(#paint28_linear)"/>
            <path d="M371.195 260.969C369.645 259.975 369.21 257.881 370.223 256.294C371.237 254.706 373.314 254.225 374.864 255.22C376.414 256.214 376.849 258.308 375.836 259.895C374.823 261.483 372.745 261.964 371.195 260.969Z" fill="white"/>
            <path d="M357.882 325.557C357.611 320.372 352.861 273.978 352.861 273.978L356.661 273.568C356.661 273.568 361.275 322.146 361.682 325.148C362.496 330.196 363.582 333.062 363.989 336.61L365.482 352.302L359.375 352.848L357.882 337.155C357.475 333.608 358.018 330.742 357.882 325.557Z" fill="url(#paint29_linear)"/>
            <path d="M340.916 241.642C340.237 236.321 337.659 207.12 337.659 207.12C337.659 207.12 336.98 202.753 339.966 200.706C341.73 199.478 344.58 198.114 347.566 197.704C350.687 197.568 353.808 198.387 355.708 199.205C359.101 200.706 359.237 205.073 359.237 205.073C359.237 205.073 362.494 234.274 362.765 239.596C363.172 244.917 362.358 247.237 361.137 253.104C359.915 259.108 363.987 265.249 363.987 265.249C365.208 266.067 365.751 269.069 365.751 271.798C365.615 275.619 359.78 277.802 356.658 278.348C356.387 278.348 355.98 278.485 355.708 278.485C355.437 278.485 355.03 278.485 354.758 278.621C351.501 278.758 345.394 277.802 344.58 273.982C344.037 271.389 344.037 268.251 344.987 267.159C344.987 267.159 347.701 260.336 345.394 254.742C342.816 249.011 341.594 246.964 340.916 241.642Z" fill="url(#paint30_linear)"/>
            <path d="M349.458 245.197C349.73 248.062 352.037 250.109 354.48 249.836C356.922 249.563 358.822 247.107 358.551 244.241L354.615 204.397C354.344 201.532 352.037 199.485 349.594 199.758C347.151 200.031 345.251 202.487 345.523 205.352L349.458 245.197Z" fill="white"/>
            <path d="M347.566 270.986L348.245 277.672C346.073 276.99 344.037 275.898 343.63 273.852C343.088 271.259 343.088 268.121 344.173 267.029C344.173 267.029 344.309 266.756 344.445 266.347C346.073 267.029 347.43 268.803 347.566 270.986Z" fill="white"/>
            <path d="M341.188 205.753L345.124 245.598C345.395 247.781 344.309 249.691 342.817 250.647C341.46 247.645 340.645 245.461 340.238 241.641C339.56 236.319 337.117 207.118 337.117 207.118C337.117 207.118 336.574 203.707 338.474 201.523C339.831 202.206 341.052 203.843 341.188 205.753Z" fill="white"/>
            <path d="M351.908 270.427C351.637 267.562 353.401 265.106 355.98 264.833C358.558 264.56 360.73 266.743 361.001 269.472L361.68 276.295C359.78 277.25 357.744 277.796 356.251 278.069C355.98 278.069 355.573 278.205 355.166 278.205C354.758 278.205 354.487 278.205 354.08 278.341C353.673 278.341 353.13 278.341 352.587 278.341L351.908 270.427Z" fill="white"/>
            <path d="M309.999 268.935L312.713 279.851C312.713 279.851 315.563 280.67 316.784 283.262C318.006 285.855 324.927 300.183 338.227 308.643C351.526 317.103 382.061 322.697 384.096 324.198C386.132 325.699 387.489 325.836 387.489 325.836C387.489 325.836 388.032 333.477 386.946 334.023C385.861 334.569 384.911 334.296 384.096 335.387C383.282 336.479 375.275 342.619 368.49 343.848C351.119 347.259 318.956 340.436 308.099 317.239C300.635 301.274 303.892 283.399 305.113 281.898C306.335 280.397 303.892 268.526 305.249 267.707C306.606 267.025 309.999 268.935 309.999 268.935Z" fill="url(#paint31_linear)"/>
            <path d="M370.802 328.704C366.46 328.704 362.253 327.613 358.181 325.975C352.889 323.792 347.596 321.609 342.168 319.698C336.875 317.788 331.447 315.468 326.968 311.92C321.54 307.418 317.74 301.55 315.026 295C313.669 291.725 311.497 285.994 313.533 283.129C313.94 283.538 314.211 283.948 314.483 284.493C315.704 287.086 322.625 301.414 335.925 309.874C347.732 317.515 373.516 322.837 380.166 324.884C380.031 328.295 373.516 328.704 370.802 328.704Z" fill="white" fill-opacity="0.25"/>
            <path d="M384.777 324.604C386.405 325.696 386.677 324.741 387.491 325.833C388.305 326.924 388.305 333.883 387.22 334.429C386.541 334.838 385.591 334.429 384.913 334.702C384.506 331.427 384.37 328.016 384.777 324.604Z" fill="#683B11"/>
            <path d="M353.963 242.726L350.434 253.369C350.434 253.369 352.334 255.552 352.063 258.418C351.656 261.147 350.027 277.112 356.677 291.44C363.327 305.767 386.126 326.917 387.076 329.237C388.026 331.557 389.112 332.512 389.112 332.512C389.112 332.512 385.448 339.335 384.226 339.198C383.005 339.062 382.326 338.379 381.105 338.789C379.883 339.198 369.841 340.153 363.463 337.561C347.042 331.147 323.428 307.95 326.55 282.57C328.721 265.104 340.935 251.732 342.835 251.186C344.735 250.64 348.942 239.314 350.57 239.314C352.063 239.314 353.963 242.726 353.963 242.726Z" fill="url(#paint32_linear)"/>
            <path d="M373.506 326.103C369.842 323.784 366.857 320.645 364.278 316.961C360.885 312.322 357.628 307.546 354.236 303.043C350.843 298.54 347.45 293.764 345.686 288.306C343.515 281.62 343.379 274.524 344.6 267.565C345.143 264.017 346.5 258.15 349.622 256.785C349.757 257.331 349.757 257.877 349.622 258.423C349.214 261.152 347.586 277.117 354.236 291.444C360.207 304.271 379.071 322.555 383.685 328.014C381.513 330.606 375.678 327.468 373.506 326.103Z" fill="white" fill-opacity="0.25"/>
            <path d="M387.349 330.06C388.163 331.833 388.978 331.288 388.978 332.516C389.113 333.744 385.314 339.748 384.092 339.611C383.278 339.475 382.735 338.656 382.056 338.656C383.549 335.654 385.314 332.789 387.349 330.06Z" fill="#683B11"/>
            <path d="M403.484 309.866C415.019 322.829 425.333 340.158 434.29 334.564C446.232 327.332 434.29 302.497 424.383 285.441C419.226 276.708 414.612 270.022 413.798 268.93L419.633 257.059C419.769 257.059 419.769 257.059 419.769 257.059C419.769 257.059 423.569 258.696 426.826 264.7C428.726 267.975 430.354 271.25 432.254 275.07C433.476 277.527 435.918 282.03 438.768 288.17C450.168 314.096 453.153 337.566 438.904 344.934C421.94 353.531 409.048 330.197 395.341 317.234C387.741 310.139 381.77 306.455 379.192 304.544L391.677 294.447C392.356 295.811 398.055 303.726 403.484 309.866Z" fill="url(#paint33_linear)"/>
            <path d="M403.485 309.867C397.785 303.317 391.95 295.267 391.543 294.721C400.771 286.261 408.506 276.846 413.935 268.249L413.663 268.931C413.663 268.931 418.82 276.027 424.384 285.715C428.184 292.265 432.391 300.179 435.377 307.684C435.92 316.144 436.191 325.013 435.648 333.61C435.241 333.883 434.698 334.429 434.156 334.565C425.334 340.023 415.02 322.967 403.485 309.867Z" fill="url(#paint34_linear)"/>
            <path d="M263.426 269.883C254.605 248.869 242.119 212.163 258.404 204.795C270.075 199.337 282.968 208.479 293.553 219.941L284.189 225.672C277.404 218.167 270.075 212.709 264.24 215.574C253.926 220.35 264.376 247.641 271.84 263.879C271.84 263.879 271.704 263.879 271.704 264.015C271.704 264.015 298.846 319.279 340.644 318.733C354.215 318.596 367.515 312.865 379.457 304.542H379.322C381.9 306.452 387.871 310.136 395.471 317.368C408.092 328.967 419.899 349.571 434.691 346.569C434.42 348.343 434.284 350.117 433.877 351.891C431.163 367.31 422.613 380.956 410.263 390.507C404.021 395.283 396.014 401.833 386.243 410.566C368.601 426.531 342.951 427.213 315.538 416.979C272.383 400.878 266.004 344.932 267.361 305.361C267.633 293.489 267.904 280.799 263.426 269.883Z" fill="url(#paint35_linear)"/>
            <path d="M420.176 257.462C420.99 257.872 421.668 258.418 422.347 259.1C421.533 258.281 420.719 257.735 420.176 257.462Z" fill="url(#paint36_linear)"/>
            <path d="M283.103 334.424C277.675 331.012 260.576 336.334 260.576 336.334C258.811 337.016 255.826 339.882 255.419 343.703C255.011 347.523 251.754 361.578 263.833 371.539C264.918 373.586 266.547 373.995 266.547 373.995C266.547 373.995 279.032 375.769 287.853 367.718C291.924 362.533 286.496 359.668 286.496 359.668C286.496 359.668 291.924 359.258 291.382 353.8C290.839 348.478 286.768 348.888 286.768 348.888C286.768 348.888 293.146 346.704 290.703 342.065C288.396 337.426 283.239 339.745 283.239 339.745C283.239 339.745 287.175 337.289 283.103 334.424Z" fill="url(#paint37_linear)"/>
            <path d="M460.885 357.9C454.236 362.539 448.129 366.633 447.179 367.452C444.872 369.635 405.652 399.245 405.652 398.972L405.787 399.109C402.802 398.972 399.816 398.427 396.831 397.608C391.674 395.97 384.888 395.97 382.038 395.834C381.902 395.834 379.867 396.243 381.631 395.834C353.403 399.928 365.753 405.659 375.931 406.341C378.51 406.614 375.931 407.432 371.453 408.66C362.767 411.253 344.311 416.711 346.075 422.988C351.911 437.725 376.474 433.222 383.938 432.13C390.316 431.175 396.831 429.674 402.666 427.218C403.48 426.945 404.43 426.536 405.245 426.263C409.316 424.762 414.608 422.579 418.273 419.713C427.637 415.62 497.391 384.099 504.177 379.732C504.991 379.187 505.941 378.504 507.298 377.959C516.255 373.183 532.133 364.04 529.962 344.8C528.876 335.522 527.655 320.921 526.705 307.003C526.433 302.364 525.89 297.861 525.619 293.494L477.035 301.818C481.242 316.145 487.213 339.342 483.82 342.481C480.835 344.664 470.114 351.896 460.885 357.9Z" fill="url(#paint38_linear)"/>
            <path d="M417.998 83.9011C417.998 83.9011 366.7 66.0258 370.093 128.521C369.414 157.859 379.185 169.048 381.085 180.237C383.257 193.473 400.763 192.654 418.948 187.878C451.111 176.416 455.318 140.393 459.661 121.562C464.14 102.868 434.691 86.4938 417.998 83.9011Z" fill="url(#paint39_linear)"/>
            <path d="M445.683 167.413C445.683 167.413 453.825 136.165 442.018 133.846C436.861 132.754 433.74 133.982 432.112 137.666C431.433 139.304 429.94 140.395 428.176 140.122C426.548 139.986 425.462 138.621 425.598 136.984C426.005 131.935 425.055 130.707 423.291 128.524C420.441 125.113 416.776 121.974 413.791 120.61C399.948 114.196 389.363 119.109 381.356 119.109C373.349 119.109 370.228 114.879 370.228 113.241C370.228 98.3677 373.757 80.6288 384.342 72.851C392.756 66.4377 408.362 60.5702 424.512 70.9407C424.512 70.9407 439.576 69.4397 446.497 79.4008C446.497 79.4008 464.275 82.4027 464.003 102.188C464.411 115.151 461.154 145.171 445.683 167.413Z" fill="url(#paint40_linear)"/>
            <path d="M456 126.609C454.643 126.199 453.693 125.517 452.336 124.971C450.979 124.289 449.486 123.743 447.858 123.334C441.344 120.605 434.694 120.878 428.044 118.012C426.687 119.24 425.194 117.739 424.109 116.92C420.173 113.509 416.916 107.914 413.116 104.367C402.938 94.4056 391.403 91.2672 377.56 88.9475C376.339 88.6746 374.71 90.7214 374.032 89.2204C375.389 89.084 375.253 86.3549 375.66 85.5362C382.582 68.3431 397.374 54.9707 426.28 63.4308C480.564 80.6239 463.057 125.79 461.836 127.973L456 126.609Z" fill="url(#paint41_linear)"/>
            <path d="M413.661 60.7031C396.155 56.4731 378.648 72.1652 373.898 85.4011C373.491 86.3563 373.627 88.9489 372.27 89.0854C372.948 90.5863 376.07 88.5395 377.291 88.8124C391.269 91.1321 402.94 94.5435 413.118 104.505C416.918 108.052 420.04 112.146 423.839 115.83H424.111C424.111 115.694 424.111 115.557 424.111 115.421C424.925 93.7248 440.939 66.0248 413.661 60.7031Z" fill="url(#paint42_linear)"/>
            <path d="M370.093 120.058C370.093 120.058 369.686 120.195 369.415 120.195C357.744 118.012 347.837 111.871 342.544 101.637C340.237 96.9978 339.694 91.9491 343.766 87.5826C347.158 84.3077 351.094 84.4442 355.437 85.3993C362.222 86.9003 367.922 90.3116 373.215 94.6781C377.015 98.2259 422.884 114.6 424.241 115.283C432.248 117.466 454.233 122.787 462.783 126.062C462.24 127.154 462.647 127.427 461.697 127.836C458.712 128.109 440.255 122.105 437.677 121.286C435.912 120.741 434.013 120.331 432.248 119.922C420.442 118.148 408.499 116.374 396.692 114.191C390.721 112.963 385.157 111.325 380.679 107.232C377.422 104.23 371.586 106.004 370.908 110.234C370.093 115.965 370.093 120.058 370.093 120.058Z" fill="url(#paint43_linear)"/>
            <path d="M424.102 115.416C413.653 114.734 403.339 112.277 393.025 110.367C388.954 109.685 385.561 107.092 382.575 104.5C377.554 100.27 372.804 95.6301 367.647 91.673C362.355 87.5794 355.841 85.8055 348.919 85.5326C347.291 85.5326 343.898 87.17 341.998 90.172C343.627 85.2597 348.376 83.2129 352.583 83.7587C359.233 84.8503 365.883 86.0784 372.397 87.3065C381.761 88.2617 390.718 90.4449 399.268 93.9927C407.139 97.1311 413.246 102.589 418.403 108.866C420.031 110.913 422.745 112.687 424.102 115.416Z" fill="url(#paint44_linear)"/>
            <path d="M435.099 122.926C439.713 114.057 449.62 117.741 448.534 126.337C447.584 135.07 437.813 148.443 433.606 145.987C429.535 143.667 432.385 130.568 435.099 122.926Z" fill="#FFD4AD"/>
            <path d="M382.99 151.855H377.019C375.797 151.855 374.847 152.811 374.847 154.039C374.847 155.267 375.797 156.222 377.019 156.222H382.99C384.211 156.222 385.161 155.267 385.161 154.039C385.297 152.811 384.211 151.855 382.99 151.855Z" fill="#F2B689"/>
            <path d="M374.986 153.903C374.443 149.81 381.364 138.075 384.893 135.346C386.25 140.667 385.436 151.584 384.893 153.903C378.921 155.131 375.8 154.313 374.986 153.903Z" fill="url(#paint45_linear)"/>
            <path d="M409.311 127.834L408.09 126.333C407.818 126.06 407.547 125.924 407.14 125.924L390.312 124.286C389.633 124.286 388.955 124.832 388.955 125.651V128.516C388.955 129.198 389.498 129.881 390.312 129.881L408.497 129.608C409.447 129.608 410.261 128.789 409.311 127.834Z" fill="url(#paint46_linear)"/>
            <path d="M377.291 124.286C377.969 124.286 378.784 124.968 378.648 125.787L378.512 128.789C378.512 129.471 377.834 130.154 376.884 130.154L370.041 129.198L369.962 125.105L377.291 124.286Z" fill="url(#paint47_linear)"/>
            <path d="M407.553 137.521C407.553 137.521 397.239 137.385 394.525 137.385C391.675 137.385 393.846 144.617 397.239 144.617C400.632 144.617 404.567 141.751 407.553 137.521Z" fill="url(#paint48_linear)"/>
            <path d="M377.832 136.844C380.682 136.844 378.239 143.393 374.982 143.257C374.032 143.257 372.675 141.892 371.589 141.483L371.046 136.298C373.896 136.434 376.475 136.844 377.832 136.844Z" fill="url(#paint49_linear)"/>
            <path d="M408.37 138.886C409.592 138.341 409.185 136.567 407.828 136.567C404.978 136.43 401.314 136.294 399.006 136.157C396.835 135.884 394.799 135.748 393.578 135.748C392.9 135.748 392.628 136.43 393.035 136.976C393.714 137.795 394.121 138.886 393.985 139.842C393.85 140.387 394.121 140.933 394.664 141.07C396.428 141.616 400.906 142.571 408.37 138.886Z" fill="url(#paint50_linear)"/>
            <path d="M374.573 135.486C375.523 135.486 376.473 135.35 377.423 135.213C378.101 135.077 378.508 135.895 378.101 136.441C377.694 136.987 377.423 137.669 377.287 138.488V139.307C377.287 139.58 377.151 139.989 376.88 139.989C376.066 140.262 374.03 140.671 370.366 138.215L370.23 134.804C371.587 135.077 372.401 135.486 374.573 135.486Z" fill="url(#paint51_linear)"/>
            <path d="M402.663 163.722C402.663 163.722 389.771 165.905 379.05 165.086C379.05 165.086 381.9 175.32 388.685 175.593C395.335 175.73 401.442 166.451 402.663 163.722Z" fill="url(#paint52_linear)"/>
            <path d="M402.663 163.722C402.663 163.722 386.107 176.139 379.05 164.95C379.05 164.95 394.656 164.267 402.663 163.722Z" fill="white"/>
        </g>
    </g>
    <defs>
        <filter id="filter0_d" x="0.713257" y="20" width="745.423" height="705.525" filterUnits="userSpaceOnUse" color-interpolation-filters="sRGB">
            <feFlood flood-opacity="0" result="BackgroundImageFix"/>
            <feColorMatrix in="SourceAlpha" type="matrix" values="0 0 0 0 0 0 0 0 0 0 0 0 0 0 0 0 0 0 127 0"/>
            <feOffset dy="60"/>
            <feGaussianBlur stdDeviation="50"/>
            <feColorMatrix type="matrix" values="0 0 0 0 0.278431 0 0 0 0 0 0 0 0 0 0.372549 0 0 0 0.1 0"/>
            <feBlend mode="normal" in2="BackgroundImageFix" result="effect1_dropShadow"/>
            <feBlend mode="normal" in="SourceGraphic" in2="effect1_dropShadow" result="shape"/>
        </filter>
        <filter id="filter1_i" x="147.872" y="227.482" width="476.77" height="348.666" filterUnits="userSpaceOnUse" color-interpolation-filters="sRGB">
            <feFlood flood-opacity="0" result="BackgroundImageFix"/>
            <feBlend mode="normal" in="SourceGraphic" in2="BackgroundImageFix" result="shape"/>
            <feColorMatrix in="SourceAlpha" type="matrix" values="0 0 0 0 0 0 0 0 0 0 0 0 0 0 0 0 0 0 127 0" result="hardAlpha"/>
            <feOffset dy="12"/>
            <feGaussianBlur stdDeviation="30"/>
            <feComposite in2="hardAlpha" operator="arithmetic" k2="-1" k3="1"/>
            <feColorMatrix type="matrix" values="0 0 0 0 0 0 0 0 0 0 0 0 0 0 0 0 0 0 0.09 0"/>
            <feBlend mode="normal" in2="shape" result="effect1_innerShadow"/>
        </filter>
        <filter id="filter2_d" x="206.979" y="0" width="443.185" height="648.5" filterUnits="userSpaceOnUse" color-interpolation-filters="sRGB">
            <feFlood flood-opacity="0" result="BackgroundImageFix"/>
            <feColorMatrix in="SourceAlpha" type="matrix" values="0 0 0 0 0 0 0 0 0 0 0 0 0 0 0 0 0 0 127 0"/>
            <feOffset dx="40" dy="20"/>
            <feGaussianBlur stdDeviation="40"/>
            <feColorMatrix type="matrix" values="0 0 0 0 0 0 0 0 0 0 0 0 0 0 0 0 0 0 0.18 0"/>
            <feBlend mode="normal" in2="BackgroundImageFix" result="effect1_dropShadow"/>
            <feBlend mode="normal" in="SourceGraphic" in2="effect1_dropShadow" result="shape"/>
        </filter>
        <linearGradient id="paint0_linear" x1="634.581" y1="259.134" x2="137.224" y2="523.924" gradientUnits="userSpaceOnUse">
            <stop stop-color="#13B07F"/>
            <stop offset="0.671875" stop-color="#13B672"/>
            <stop offset="1" stop-color="#00A06D"/>
        </linearGradient>
        <linearGradient id="paint1_linear" x1="481" y1="590.326" x2="340.478" y2="357.873" gradientUnits="userSpaceOnUse">
            <stop stop-color="#017B54"/>
            <stop offset="1" stop-color="#00A16E" stop-opacity="0"/>
        </linearGradient>
        <linearGradient id="paint2_linear" x1="616.688" y1="351.621" x2="172.994" y2="553.538" gradientUnits="userSpaceOnUse">
            <stop stop-color="#13B786"/>
            <stop offset="0.671875" stop-color="#18B875"/>
            <stop offset="1" stop-color="#02A270"/>
        </linearGradient>
        <linearGradient id="paint3_linear" x1="502.997" y1="548.861" x2="332.267" y2="237.47" gradientUnits="userSpaceOnUse">
            <stop offset="0.0001" stop-color="#047C52"/>
            <stop offset="1" stop-color="#17CC8C" stop-opacity="0"/>
        </linearGradient>
        <linearGradient id="paint4_linear" x1="367.968" y1="312.752" x2="261.286" y2="332.278" gradientUnits="userSpaceOnUse">
            <stop stop-color="#FFCA9B"/>
            <stop offset="1" stop-color="#FFDDBF"/>
        </linearGradient>
        <linearGradient id="paint5_linear" x1="362.81" y1="447.372" x2="416.419" y2="555.293" gradientUnits="userSpaceOnUse">
            <stop stop-color="#404769"/>
            <stop offset="1" stop-color="#1C2330"/>
        </linearGradient>
        <linearGradient id="paint6_linear" x1="425.62" y1="336.266" x2="425.62" y2="564.391" gradientUnits="userSpaceOnUse">
            <stop stop-color="white" stop-opacity="0"/>
            <stop offset="1" stop-color="#ECECEC"/>
        </linearGradient>
        <linearGradient id="paint7_linear" x1="401.461" y1="244.699" x2="414.82" y2="217.326" gradientUnits="userSpaceOnUse">
            <stop stop-color="#FFCA9B"/>
            <stop offset="1" stop-color="#FFDDBF"/>
        </linearGradient>
        <linearGradient id="paint8_linear" x1="468.163" y1="291.273" x2="475.933" y2="288.656" gradientUnits="userSpaceOnUse">
            <stop stop-color="white"/>
            <stop offset="1" stop-color="#E5E5E5"/>
        </linearGradient>
        <linearGradient id="paint9_linear" x1="419.238" y1="257.433" x2="533.19" y2="312.437" gradientUnits="userSpaceOnUse">
            <stop stop-color="#404769"/>
            <stop offset="1" stop-color="#1C2330"/>
        </linearGradient>
        <linearGradient id="paint10_linear" x1="420.401" y1="315.181" x2="300.767" y2="363.284" gradientUnits="userSpaceOnUse">
            <stop stop-color="#404769"/>
            <stop offset="1" stop-color="#1C2330"/>
        </linearGradient>
        <linearGradient id="paint11_linear" x1="413.243" y1="172.608" x2="425.136" y2="199.806" gradientUnits="userSpaceOnUse">
            <stop stop-color="#F8BC87"/>
            <stop offset="1" stop-color="#FFDDBF"/>
        </linearGradient>
        <linearGradient id="paint12_linear" x1="435.159" y1="304.528" x2="256.938" y2="316.778" gradientUnits="userSpaceOnUse">
            <stop stop-color="#AE47A4"/>
            <stop offset="1" stop-color="#A14298"/>
        </linearGradient>
        <linearGradient id="paint13_linear" x1="374.709" y1="296.18" x2="297.618" y2="294.7" gradientUnits="userSpaceOnUse">
            <stop stop-color="#9A3996"/>
            <stop offset="1" stop-color="#8C3B89"/>
        </linearGradient>
        <linearGradient id="paint14_linear" x1="395.266" y1="295.634" x2="293.042" y2="279.93" gradientUnits="userSpaceOnUse">
            <stop stop-color="#8B398D"/>
            <stop offset="1" stop-color="#873A89"/>
        </linearGradient>
        <linearGradient id="paint15_linear" x1="345.947" y1="265.495" x2="292.824" y2="294.738" gradientUnits="userSpaceOnUse">
            <stop stop-color="#F1F1F1"/>
            <stop offset="1" stop-color="white"/>
        </linearGradient>
        <linearGradient id="paint16_linear" x1="317.312" y1="254.781" x2="304.264" y2="249.102" gradientUnits="userSpaceOnUse">
            <stop stop-color="#F8345B"/>
            <stop offset="1" stop-color="#FF587A"/>
        </linearGradient>
        <linearGradient id="paint17_linear" x1="323.158" y1="267.834" x2="310.064" y2="262.198" gradientUnits="userSpaceOnUse">
            <stop stop-color="#F8345B"/>
            <stop offset="1" stop-color="#FF587A"/>
        </linearGradient>
        <linearGradient id="paint18_linear" x1="323.158" y1="267.834" x2="310.064" y2="262.198" gradientUnits="userSpaceOnUse">
            <stop stop-color="#F8345B"/>
            <stop offset="1" stop-color="#FF587A"/>
        </linearGradient>
        <linearGradient id="paint19_linear" x1="328.846" y1="281.214" x2="315.752" y2="275.577" gradientUnits="userSpaceOnUse">
            <stop stop-color="#F8345B"/>
            <stop offset="1" stop-color="#FF587A"/>
        </linearGradient>
        <linearGradient id="paint20_linear" x1="328.846" y1="281.214" x2="315.752" y2="275.577" gradientUnits="userSpaceOnUse">
            <stop stop-color="#F8345B"/>
            <stop offset="1" stop-color="#FF587A"/>
        </linearGradient>
        <linearGradient id="paint21_linear" x1="334.548" y1="294.447" x2="321.381" y2="288.734" gradientUnits="userSpaceOnUse">
            <stop stop-color="#F8345B"/>
            <stop offset="1" stop-color="#FF587A"/>
        </linearGradient>
        <linearGradient id="paint22_linear" x1="334.548" y1="294.447" x2="321.381" y2="288.734" gradientUnits="userSpaceOnUse">
            <stop stop-color="#F8345B"/>
            <stop offset="1" stop-color="#FF587A"/>
        </linearGradient>
        <linearGradient id="paint23_linear" x1="340.254" y1="307.823" x2="327.159" y2="302.187" gradientUnits="userSpaceOnUse">
            <stop stop-color="#F8345B"/>
            <stop offset="1" stop-color="#FF587A"/>
        </linearGradient>
        <linearGradient id="paint24_linear" x1="340.254" y1="307.823" x2="327.159" y2="302.187" gradientUnits="userSpaceOnUse">
            <stop stop-color="#F8345B"/>
            <stop offset="1" stop-color="#FF587A"/>
        </linearGradient>
        <linearGradient id="paint25_linear" x1="403.556" y1="226.975" x2="384.525" y2="224.743" gradientUnits="userSpaceOnUse">
            <stop stop-color="#F1F1F1"/>
            <stop offset="1" stop-color="white"/>
        </linearGradient>
        <linearGradient id="paint26_linear" x1="361.297" y1="262.884" x2="403.75" y2="285.709" gradientUnits="userSpaceOnUse">
            <stop stop-color="#3C4661"/>
            <stop offset="1" stop-color="#1C2330"/>
        </linearGradient>
        <linearGradient id="paint27_linear" x1="391.266" y1="317.452" x2="356.775" y2="280.793" gradientUnits="userSpaceOnUse">
            <stop stop-color="#0BAA70"/>
            <stop offset="1" stop-color="#15C296"/>
        </linearGradient>
        <linearGradient id="paint28_linear" x1="387.272" y1="214.763" x2="408.762" y2="220.672" gradientUnits="userSpaceOnUse">
            <stop stop-color="#3C4661"/>
            <stop offset="1" stop-color="#1C2330"/>
        </linearGradient>
        <linearGradient id="paint29_linear" x1="337.908" y1="293.023" x2="383.764" y2="329.026" gradientUnits="userSpaceOnUse">
            <stop stop-color="#404769"/>
            <stop offset="1" stop-color="#1C2330"/>
        </linearGradient>
        <linearGradient id="paint30_linear" x1="337.129" y1="205.199" x2="381.959" y2="254.732" gradientUnits="userSpaceOnUse">
            <stop stop-color="#3C4661"/>
            <stop offset="1" stop-color="#1C2330"/>
        </linearGradient>
        <linearGradient id="paint31_linear" x1="346.32" y1="321.43" x2="311.397" y2="330.47" gradientUnits="userSpaceOnUse">
            <stop stop-color="#F8C238"/>
            <stop offset="1" stop-color="#FFE241"/>
            <stop offset="1" stop-color="#EFD336"/>
        </linearGradient>
        <linearGradient id="paint32_linear" x1="360.798" y1="298.107" x2="330.979" y2="288.704" gradientUnits="userSpaceOnUse">
            <stop stop-color="#F8C238"/>
            <stop offset="1" stop-color="#FFE241"/>
            <stop offset="1" stop-color="#EFD336"/>
        </linearGradient>
        <linearGradient id="paint33_linear" x1="452.208" y1="346.729" x2="390.183" y2="275.432" gradientUnits="userSpaceOnUse">
            <stop stop-color="#953697"/>
            <stop offset="1" stop-color="#893A8B"/>
        </linearGradient>
        <linearGradient id="paint34_linear" x1="454.702" y1="347.226" x2="391.856" y2="272.814" gradientUnits="userSpaceOnUse">
            <stop stop-color="#933C8F"/>
            <stop offset="1" stop-color="#9C3F98"/>
        </linearGradient>
        <linearGradient id="paint35_linear" x1="256" y1="203.001" x2="396.454" y2="405.915" gradientUnits="userSpaceOnUse">
            <stop stop-color="#A743A3"/>
            <stop offset="1" stop-color="#903B8D"/>
        </linearGradient>
        <linearGradient id="paint36_linear" x1="422.345" y1="258.224" x2="420.256" y2="258.322" gradientUnits="userSpaceOnUse">
            <stop stop-color="#AE47A4"/>
            <stop offset="1" stop-color="#A14298"/>
        </linearGradient>
        <linearGradient id="paint37_linear" x1="291.368" y1="374.511" x2="258.742" y2="337.994" gradientUnits="userSpaceOnUse">
            <stop stop-color="#FFC48F"/>
            <stop offset="1" stop-color="#FFDDBF"/>
        </linearGradient>
        <linearGradient id="paint38_linear" x1="463.194" y1="416.18" x2="447.092" y2="337.824" gradientUnits="userSpaceOnUse">
            <stop stop-color="#FFC48F"/>
            <stop offset="1" stop-color="#FFDDBF"/>
        </linearGradient>
        <linearGradient id="paint39_linear" x1="382.76" y1="133.525" x2="462.636" y2="169.762" gradientUnits="userSpaceOnUse">
            <stop stop-color="#FFC48F"/>
            <stop offset="1" stop-color="#FFDDBF"/>
        </linearGradient>
        <linearGradient id="paint40_linear" x1="364.293" y1="55.038" x2="462.474" y2="148.125" gradientUnits="userSpaceOnUse">
            <stop stop-color="#784333"/>
            <stop offset="1" stop-color="#332521"/>
        </linearGradient>
        <linearGradient id="paint41_linear" x1="354.305" y1="65.4575" x2="464.523" y2="117.955" gradientUnits="userSpaceOnUse">
            <stop stop-color="#3A445F"/>
            <stop offset="1" stop-color="#1C2230"/>
        </linearGradient>
        <linearGradient id="paint42_linear" x1="385.775" y1="67.9372" x2="449.004" y2="111.62" gradientUnits="userSpaceOnUse">
            <stop stop-color="#404769"/>
            <stop offset="1" stop-color="#1C2330"/>
        </linearGradient>
        <linearGradient id="paint43_linear" x1="351.497" y1="98.4512" x2="464.795" y2="136.286" gradientUnits="userSpaceOnUse">
            <stop stop-color="#373D4D"/>
            <stop offset="1" stop-color="#161E31"/>
        </linearGradient>
        <linearGradient id="paint44_linear" x1="368.288" y1="86.7888" x2="400.51" y2="129.516" gradientUnits="userSpaceOnUse">
            <stop stop-color="#404769"/>
            <stop offset="1" stop-color="#1C2330"/>
        </linearGradient>
        <linearGradient id="paint45_linear" x1="376.713" y1="144.079" x2="387.315" y2="146.241" gradientUnits="userSpaceOnUse">
            <stop stop-color="#F0B182"/>
            <stop offset="1" stop-color="#FFCDA0"/>
        </linearGradient>
        <linearGradient id="paint46_linear" x1="388.684" y1="126.784" x2="392.345" y2="135.8" gradientUnits="userSpaceOnUse">
            <stop stop-color="#784333"/>
            <stop offset="1" stop-color="#332521"/>
        </linearGradient>
        <linearGradient id="paint47_linear" x1="369.849" y1="126.906" x2="375.356" y2="132.32" gradientUnits="userSpaceOnUse">
            <stop stop-color="#854D3C"/>
            <stop offset="1" stop-color="#6F3D2D"/>
        </linearGradient>
        <linearGradient id="paint48_linear" x1="402.877" y1="143.985" x2="399.167" y2="136.588" gradientUnits="userSpaceOnUse">
            <stop stop-color="#EAAC7F"/>
            <stop offset="1" stop-color="#FFCDA0"/>
        </linearGradient>
        <linearGradient id="paint49_linear" x1="373.343" y1="143.495" x2="375.571" y2="136.093" gradientUnits="userSpaceOnUse">
            <stop stop-color="#EAAC7F"/>
            <stop offset="1" stop-color="#FFCDA0"/>
        </linearGradient>
        <linearGradient id="paint50_linear" x1="392.632" y1="138.361" x2="397.239" y2="146.845" gradientUnits="userSpaceOnUse">
            <stop stop-color="#784333"/>
            <stop offset="1" stop-color="#332521"/>
        </linearGradient>
        <linearGradient id="paint51_linear" x1="370.125" y1="137.212" x2="375.187" y2="142.211" gradientUnits="userSpaceOnUse">
            <stop stop-color="#854D3C"/>
            <stop offset="1" stop-color="#6F3D2D"/>
        </linearGradient>
        <linearGradient id="paint52_linear" x1="390.724" y1="167.765" x2="390.724" y2="181.932" gradientUnits="userSpaceOnUse">
            <stop stop-color="#3C4661"/>
            <stop offset="1" stop-color="#1C2230"/>
        </linearGradient>
    </defs>
</svg>
