<!-- Generated by IcoMoon.io -->
<svg version="1.1" xmlns="http://www.w3.org/2000/svg" width="38" height="32" viewBox="0 0 38 32">
<title>basket</title>
<path fill="#222c54" d="M31.876 20.167c0.693 0 1.386-0.5 1.559-1.167l4.851-13.333c0.173-0.5 0.173-1.167-0.173-1.667s-0.866-0.833-1.559-0.833h-26.159l-1.213-2.167c-0.346-0.667-1.039-1-1.732-1h-5.544c-1.039 0-1.906 0.833-1.906 1.833s0.866 1.833 1.906 1.833h4.504l1.039 2 4.504 14.667v0.167l1.213 3.667h-2.425c-0.346 0-0.693 0.167-1.039 0.333-1.732 0.333-3.118 1.833-3.118 3.667 0 2 1.732 3.833 3.985 3.833s3.985-1.667 3.985-3.833c0-0.167 0-0.167 0-0.333h12.993c0 0.167 0 0.167 0 0.333 0 2 1.732 3.833 3.984 3.833s3.985-1.667 3.985-3.833c0-1.833-1.213-3.167-3.118-3.667-0.346-0.167-0.693-0.333-1.039-0.333h-14.379l-0.866-2.667 15.765-1.333z"></path>
</svg>
