<svg width="130" height="112" viewBox="0 0 130 112" fill="none" xmlns="http://www.w3.org/2000/svg">
<path d="M107.915 70.5833C110.261 70.5833 112.606 68.8333 113.193 66.5L129.615 19.8333C130.201 18.0833 130.201 15.75 129.028 14C127.855 12.25 126.096 11.0833 123.75 11.0833H35.1895L31.0841 3.5C29.9111 1.16667 27.5651 0 25.2192 0H6.45141C2.93246 0 0 2.91667 0 6.41667C0 9.91667 2.93246 12.8333 6.45141 12.8333H21.7002L25.2192 19.8333L40.468 71.1667V71.75L44.5734 84.5833H36.3625C35.1895 84.5833 34.0165 85.1667 32.8436 85.75C26.9786 86.9167 22.2867 92.1667 22.2867 98.5833C22.2867 105.583 28.1516 112 35.776 112C43.4004 112 49.2653 106.167 49.2653 98.5833C49.2653 98 49.2653 98 49.2653 97.4167H93.2522C93.2522 98 93.2522 98 93.2522 98.5833C93.2522 105.583 99.1172 112 106.742 112C114.366 112 120.231 106.167 120.231 98.5833C120.231 92.1667 116.125 87.5 109.674 85.75C108.501 85.1667 107.328 84.5833 106.155 84.5833H57.4762L54.5438 75.25L107.915 70.5833Z" fill="#EDEDED"/>
</svg>
